<svg id="Capa_1" enable-background="new 0 0 512 512" height="512" viewBox="0 0 512 512" width="512" xmlns="http://www.w3.org/2000/svg"><g><g><g><g><g><g><g><circle cx="256" cy="256" fill="#a3d4ff" r="256"/></g></g></g></g></g></g><path d="m511.053 278.177-60.786-60.786-.88 1.324-149.041-149.04 32.978 108.955-82.693-82.693-188.898 201.599 108.162 108.162-49.861 29.302 67.834 67.834c21.693 5.974 44.54 9.166 68.132 9.166 133.913 0 243.812-102.822 255.053-233.823z" fill="#65b1fc"/><g><g><path d="m89.354 134.742h181.922v47h-181.922z" fill="#555a66" transform="matrix(.559 -.829 .829 .559 -51.674 219.357)"/></g><g><path d="m308.185 67.28h47v181.922h-47z" fill="#333940" transform="matrix(.829 -.559 .559 .829 -31.809 212.35)"/></g></g><g><path d="m391.966 435h-271.932l-42.783-177.536h357.497z" fill="#f24500"/></g><g><path d="m434.748 257.464h-178.748v177.536h135.966z" fill="#d13400"/></g><g><path d="m61.733 217.391h201.767v80.145h-201.767z" fill="#fe6a16"/></g><g><path d="m256 217.391h194.267v80.145h-194.267z" fill="#f24500"/></g><g><path d="m241 328.812h30v74.281h-30z" fill="#fe6a16"/></g><g><path d="m256 328.812h15v74.281h-15z" fill="#f24500"/></g><g><g><path d="m156.925 328.812h30v74.281h-30z" fill="#fe6a16"/></g><g><path d="m325.075 328.812h30v74.281h-30z" fill="#f24500"/></g></g><g><g><ellipse cx="394.79" cy="314.387" fill="#fff" rx="74.161" ry="74.161" transform="matrix(.707 -.707 .707 .707 -106.674 371.241)"/></g><g><path d="m394.79 240.226c-.204 0-.405.014-.608.015v148.291c.204.002.404.015.608.015 40.958 0 74.161-33.203 74.161-74.161s-33.203-74.16-74.161-74.16z" fill="#e9edf5"/></g><path d="m447.134 299.387h-37.344v-37.344h-30v37.344h-37.344v30h37.344v37.344h30v-37.344h37.344z" fill="#555a66"/><path d="m447.134 299.387h-37.344v-37.344h-15.608v104.688h15.608v-37.344h37.344z" fill="#333940"/></g></g></svg>